<svg width="104" height="72" viewBox="0 0 104 72" fill="none" xmlns="http://www.w3.org/2000/svg">
<path d="M16.8438 31.2188H8.38867L6.91211 36H0.320312L9.70703 10.4062H15.5078L24.9648 36H18.3379L16.8438 31.2188ZM9.86523 26.4551H15.3672L12.6074 17.5781L9.86523 26.4551ZM36.3555 26.9648H33.0156V36H26.8457V10.4062H36.918C39.9531 10.4062 42.3262 11.0801 44.0371 12.4277C45.748 13.7754 46.6035 15.6797 46.6035 18.1406C46.6035 19.9219 46.2402 21.3984 45.5137 22.5703C44.7988 23.7422 43.6738 24.6914 42.1387 25.418L47.4824 35.7363V36H40.873L36.3555 26.9648ZM33.0156 22.2012H36.918C38.0898 22.2012 38.9688 21.8965 39.5547 21.2871C40.1523 20.666 40.4512 19.8047 40.4512 18.7031C40.4512 17.6016 40.1523 16.7402 39.5547 16.1191C38.957 15.4863 38.0781 15.1699 36.918 15.1699H33.0156V22.2012ZM69.543 15.1699H61.8613V36H55.6914V15.1699H48.1504V10.4062H69.543V15.1699ZM78.7363 36H72.584V10.4062H78.7363V36ZM96.2266 29.1973C96.2266 28.2949 95.9043 27.5918 95.2598 27.0879C94.627 26.584 93.5078 26.0625 91.9023 25.5234C90.2969 24.9844 88.9844 24.4629 87.9648 23.959C84.6484 22.3301 82.9902 20.0918 82.9902 17.2441C82.9902 15.8262 83.4004 14.5781 84.2207 13.5C85.0527 12.4102 86.2246 11.5664 87.7363 10.9688C89.248 10.3594 90.9473 10.0547 92.834 10.0547C94.6738 10.0547 96.3203 10.3828 97.7734 11.0391C99.2383 11.6953 100.375 12.6328 101.184 13.8516C101.992 15.0586 102.396 16.4414 102.396 18H96.2441C96.2441 16.957 95.9219 16.1484 95.2773 15.5742C94.6445 15 93.7832 14.7129 92.6934 14.7129C91.5918 14.7129 90.7188 14.959 90.0742 15.4512C89.4414 15.9316 89.125 16.5469 89.125 17.2969C89.125 17.9531 89.4766 18.5508 90.1797 19.0898C90.8828 19.6172 92.1191 20.168 93.8887 20.7422C95.6582 21.3047 97.1113 21.9141 98.248 22.5703C101.014 24.1641 102.396 26.3613 102.396 29.1621C102.396 31.4004 101.553 33.1582 99.8652 34.4355C98.1777 35.7129 95.8633 36.3516 92.9219 36.3516C90.8477 36.3516 88.9668 35.9824 87.2793 35.2441C85.6035 34.4941 84.3379 33.4746 83.4824 32.1855C82.6387 30.8848 82.2168 29.3906 82.2168 27.7031H88.4043C88.4043 29.0742 88.7559 30.0879 89.459 30.7441C90.1738 31.3887 91.3281 31.7109 92.9219 31.7109C93.9414 31.7109 94.7441 31.4941 95.3301 31.0605C95.9277 30.6152 96.2266 29.9941 96.2266 29.1973Z" fill="white"/>
<path d="M5.85742 49.8438C5.85742 49.6445 5.82617 49.4688 5.76367 49.3164C5.70508 49.1602 5.59961 49.0195 5.44727 48.8945C5.29883 48.7695 5.0918 48.6504 4.82617 48.5371C4.56445 48.4238 4.23242 48.3086 3.83008 48.1914C3.4082 48.0664 3.02734 47.9277 2.6875 47.7754C2.34766 47.6191 2.05664 47.4414 1.81445 47.2422C1.57227 47.043 1.38672 46.8145 1.25781 46.5566C1.12891 46.2988 1.06445 46.0039 1.06445 45.6719C1.06445 45.3398 1.13281 45.0332 1.26953 44.752C1.40625 44.4707 1.60156 44.2266 1.85547 44.0195C2.11328 43.8086 2.41992 43.6445 2.77539 43.5273C3.13086 43.4102 3.52734 43.3516 3.96484 43.3516C4.60547 43.3516 5.14844 43.4746 5.59375 43.7207C6.04297 43.9629 6.38477 44.2812 6.61914 44.6758C6.85352 45.0664 6.9707 45.4844 6.9707 45.9297H5.8457C5.8457 45.6094 5.77734 45.3262 5.64062 45.0801C5.50391 44.8301 5.29688 44.6348 5.01953 44.4941C4.74219 44.3496 4.39062 44.2773 3.96484 44.2773C3.5625 44.2773 3.23047 44.3379 2.96875 44.459C2.70703 44.5801 2.51172 44.7441 2.38281 44.9512C2.25781 45.1582 2.19531 45.3945 2.19531 45.6602C2.19531 45.8398 2.23242 46.0039 2.30664 46.1523C2.38477 46.2969 2.50391 46.4316 2.66406 46.5566C2.82812 46.6816 3.03516 46.7969 3.28516 46.9023C3.53906 47.0078 3.8418 47.1094 4.19336 47.207C4.67773 47.3438 5.0957 47.4961 5.44727 47.6641C5.79883 47.832 6.08789 48.0215 6.31445 48.2324C6.54492 48.4395 6.71484 48.6758 6.82422 48.9414C6.9375 49.2031 6.99414 49.5 6.99414 49.832C6.99414 50.1797 6.92383 50.4941 6.7832 50.7754C6.64258 51.0566 6.44141 51.2969 6.17969 51.4961C5.91797 51.6953 5.60352 51.8496 5.23633 51.959C4.87305 52.0645 4.4668 52.1172 4.01758 52.1172C3.62305 52.1172 3.23438 52.0625 2.85156 51.9531C2.47266 51.8438 2.12695 51.6797 1.81445 51.4609C1.50586 51.2422 1.25781 50.9727 1.07031 50.6523C0.886719 50.3281 0.794922 49.9531 0.794922 49.5273H1.91992C1.91992 49.8203 1.97656 50.0723 2.08984 50.2832C2.20312 50.4902 2.35742 50.6621 2.55273 50.7988C2.75195 50.9355 2.97656 51.0371 3.22656 51.1035C3.48047 51.166 3.74414 51.1973 4.01758 51.1973C4.41211 51.1973 4.74609 51.1426 5.01953 51.0332C5.29297 50.9238 5.5 50.7676 5.64062 50.5645C5.78516 50.3613 5.85742 50.1211 5.85742 49.8438ZM15.0039 47.4648V48.0039C15.0039 48.6445 14.9238 49.2188 14.7637 49.7266C14.6035 50.2344 14.373 50.666 14.0723 51.0215C13.7715 51.377 13.4102 51.6484 12.9883 51.8359C12.5703 52.0234 12.1016 52.1172 11.582 52.1172C11.0781 52.1172 10.6152 52.0234 10.1934 51.8359C9.77539 51.6484 9.41211 51.377 9.10352 51.0215C8.79883 50.666 8.5625 50.2344 8.39453 49.7266C8.22656 49.2188 8.14258 48.6445 8.14258 48.0039V47.4648C8.14258 46.8242 8.22461 46.252 8.38867 45.748C8.55664 45.2402 8.79297 44.8086 9.09766 44.4531C9.40234 44.0938 9.76367 43.8203 10.1816 43.6328C10.6035 43.4453 11.0664 43.3516 11.5703 43.3516C12.0898 43.3516 12.5586 43.4453 12.9766 43.6328C13.3984 43.8203 13.7598 44.0938 14.0605 44.4531C14.3652 44.8086 14.5977 45.2402 14.7578 45.748C14.9219 46.252 15.0039 46.8242 15.0039 47.4648ZM13.8848 48.0039V47.4531C13.8848 46.9453 13.832 46.4961 13.7266 46.1055C13.625 45.7148 13.4746 45.3867 13.2754 45.1211C13.0762 44.8555 12.832 44.6543 12.543 44.5176C12.2578 44.3809 11.9336 44.3125 11.5703 44.3125C11.2188 44.3125 10.9004 44.3809 10.6152 44.5176C10.334 44.6543 10.0918 44.8555 9.88867 45.1211C9.68945 45.3867 9.53516 45.7148 9.42578 46.1055C9.31641 46.4961 9.26172 46.9453 9.26172 47.4531V48.0039C9.26172 48.5156 9.31641 48.9688 9.42578 49.3633C9.53516 49.7539 9.69141 50.084 9.89453 50.3535C10.1016 50.6191 10.3457 50.8203 10.627 50.957C10.9121 51.0938 11.2305 51.1621 11.582 51.1621C11.9492 51.1621 12.2754 51.0938 12.5605 50.957C12.8457 50.8203 13.0859 50.6191 13.2812 50.3535C13.4805 50.084 13.6309 49.7539 13.7324 49.3633C13.834 48.9688 13.8848 48.5156 13.8848 48.0039ZM17.8281 43.4688V52H16.6973V43.4688H17.8281ZM21.4023 47.3066V48.2324H17.582V47.3066H21.4023ZM21.9824 43.4688V44.3945H17.582V43.4688H21.9824ZM26.5996 43.4688V52H25.4863V43.4688H26.5996ZM29.3418 43.4688V44.3945H22.75V43.4688H29.3418ZM32.9453 49.4219L34.6387 43.4688H35.459L34.9844 45.7832L33.1621 52H32.3477L32.9453 49.4219ZM31.1934 43.4688L32.541 49.3047L32.9453 52H32.1367L30.0684 43.4688H31.1934ZM37.6504 49.2988L38.9688 43.4688H40.0996L38.0371 52H37.2285L37.6504 49.2988ZM35.582 43.4688L37.2285 49.4219L37.8262 52H37.0117L35.2539 45.7832L34.7734 43.4688H35.582ZM44.2539 44.2246L41.4297 52H40.2754L43.5273 43.4688H44.2715L44.2539 44.2246ZM46.6211 52L43.791 44.2246L43.7734 43.4688H44.5176L47.7812 52H46.6211ZM46.4746 48.8418V49.7676H41.6816V48.8418H46.4746ZM48.9238 43.4688H51.748C52.3887 43.4688 52.9297 43.5664 53.3711 43.7617C53.8164 43.957 54.1543 44.2461 54.3848 44.6289C54.6191 45.0078 54.7363 45.4746 54.7363 46.0293C54.7363 46.4199 54.6562 46.7773 54.4961 47.1016C54.3398 47.4219 54.1133 47.6953 53.8164 47.9219C53.5234 48.1445 53.1719 48.3105 52.7617 48.4199L52.4453 48.543H49.791L49.7793 47.623H51.7832C52.1895 47.623 52.5273 47.5527 52.7969 47.4121C53.0664 47.2676 53.2695 47.0742 53.4062 46.832C53.543 46.5898 53.6113 46.3223 53.6113 46.0293C53.6113 45.7012 53.5469 45.4141 53.418 45.168C53.2891 44.9219 53.0859 44.7324 52.8086 44.5996C52.5352 44.4629 52.1816 44.3945 51.748 44.3945H50.0547V52H48.9238V43.4688ZM53.9102 52L51.8359 48.1328L53.0137 48.127L55.1172 51.9297V52H53.9102ZM61.7383 51.0801V52H57.2207V51.0801H61.7383ZM57.4492 43.4688V52H56.3184V43.4688H57.4492ZM61.1406 47.1367V48.0566H57.2207V47.1367H61.1406ZM61.6797 43.4688V44.3945H57.2207V43.4688H61.6797ZM71.6875 47.1367V48.0566H67.0703V47.1367H71.6875ZM67.2461 43.4688V52H66.1152V43.4688H67.2461ZM72.6719 43.4688V52H71.5469V43.4688H72.6719ZM81.25 47.4648V48.0039C81.25 48.6445 81.1699 49.2188 81.0098 49.7266C80.8496 50.2344 80.6191 50.666 80.3184 51.0215C80.0176 51.377 79.6562 51.6484 79.2344 51.8359C78.8164 52.0234 78.3477 52.1172 77.8281 52.1172C77.3242 52.1172 76.8613 52.0234 76.4395 51.8359C76.0215 51.6484 75.6582 51.377 75.3496 51.0215C75.0449 50.666 74.8086 50.2344 74.6406 49.7266C74.4727 49.2188 74.3887 48.6445 74.3887 48.0039V47.4648C74.3887 46.8242 74.4707 46.252 74.6348 45.748C74.8027 45.2402 75.0391 44.8086 75.3438 44.4531C75.6484 44.0938 76.0098 43.8203 76.4277 43.6328C76.8496 43.4453 77.3125 43.3516 77.8164 43.3516C78.3359 43.3516 78.8047 43.4453 79.2227 43.6328C79.6445 43.8203 80.0059 44.0938 80.3066 44.4531C80.6113 44.8086 80.8438 45.2402 81.0039 45.748C81.168 46.252 81.25 46.8242 81.25 47.4648ZM80.1309 48.0039V47.4531C80.1309 46.9453 80.0781 46.4961 79.9727 46.1055C79.8711 45.7148 79.7207 45.3867 79.5215 45.1211C79.3223 44.8555 79.0781 44.6543 78.7891 44.5176C78.5039 44.3809 78.1797 44.3125 77.8164 44.3125C77.4648 44.3125 77.1465 44.3809 76.8613 44.5176C76.5801 44.6543 76.3379 44.8555 76.1348 45.1211C75.9355 45.3867 75.7812 45.7148 75.6719 46.1055C75.5625 46.4961 75.5078 46.9453 75.5078 47.4531V48.0039C75.5078 48.5156 75.5625 48.9688 75.6719 49.3633C75.7812 49.7539 75.9375 50.084 76.1406 50.3535C76.3477 50.6191 76.5918 50.8203 76.873 50.957C77.1582 51.0938 77.4766 51.1621 77.8281 51.1621C78.1953 51.1621 78.5215 51.0938 78.8066 50.957C79.0918 50.8203 79.332 50.6191 79.5273 50.3535C79.7266 50.084 79.877 49.7539 79.9785 49.3633C80.0801 48.9688 80.1309 48.5156 80.1309 48.0039ZM87.8242 43.4688H88.9492V49.2402C88.9492 49.8809 88.8066 50.4141 88.5215 50.8398C88.2363 51.2656 87.8574 51.5859 87.3848 51.8008C86.916 52.0117 86.4062 52.1172 85.8555 52.1172C85.2773 52.1172 84.7539 52.0117 84.2852 51.8008C83.8203 51.5859 83.4512 51.2656 83.1777 50.8398C82.9082 50.4141 82.7734 49.8809 82.7734 49.2402V43.4688H83.8926V49.2402C83.8926 49.6855 83.9746 50.0527 84.1387 50.3418C84.3027 50.6309 84.5312 50.8457 84.8242 50.9863C85.1211 51.127 85.4648 51.1973 85.8555 51.1973C86.25 51.1973 86.5938 51.127 86.8867 50.9863C87.1836 50.8457 87.4141 50.6309 87.5781 50.3418C87.7422 50.0527 87.8242 49.6855 87.8242 49.2402V43.4688ZM95.2715 49.8438C95.2715 49.6445 95.2402 49.4688 95.1777 49.3164C95.1191 49.1602 95.0137 49.0195 94.8613 48.8945C94.7129 48.7695 94.5059 48.6504 94.2402 48.5371C93.9785 48.4238 93.6465 48.3086 93.2441 48.1914C92.8223 48.0664 92.4414 47.9277 92.1016 47.7754C91.7617 47.6191 91.4707 47.4414 91.2285 47.2422C90.9863 47.043 90.8008 46.8145 90.6719 46.5566C90.543 46.2988 90.4785 46.0039 90.4785 45.6719C90.4785 45.3398 90.5469 45.0332 90.6836 44.752C90.8203 44.4707 91.0156 44.2266 91.2695 44.0195C91.5273 43.8086 91.834 43.6445 92.1895 43.5273C92.5449 43.4102 92.9414 43.3516 93.3789 43.3516C94.0195 43.3516 94.5625 43.4746 95.0078 43.7207C95.457 43.9629 95.7988 44.2812 96.0332 44.6758C96.2676 45.0664 96.3848 45.4844 96.3848 45.9297H95.2598C95.2598 45.6094 95.1914 45.3262 95.0547 45.0801C94.918 44.8301 94.7109 44.6348 94.4336 44.4941C94.1562 44.3496 93.8047 44.2773 93.3789 44.2773C92.9766 44.2773 92.6445 44.3379 92.3828 44.459C92.1211 44.5801 91.9258 44.7441 91.7969 44.9512C91.6719 45.1582 91.6094 45.3945 91.6094 45.6602C91.6094 45.8398 91.6465 46.0039 91.7207 46.1523C91.7988 46.2969 91.918 46.4316 92.0781 46.5566C92.2422 46.6816 92.4492 46.7969 92.6992 46.9023C92.9531 47.0078 93.2559 47.1094 93.6074 47.207C94.0918 47.3438 94.5098 47.4961 94.8613 47.6641C95.2129 47.832 95.502 48.0215 95.7285 48.2324C95.959 48.4395 96.1289 48.6758 96.2383 48.9414C96.3516 49.2031 96.4082 49.5 96.4082 49.832C96.4082 50.1797 96.3379 50.4941 96.1973 50.7754C96.0566 51.0566 95.8555 51.2969 95.5938 51.4961C95.332 51.6953 95.0176 51.8496 94.6504 51.959C94.2871 52.0645 93.8809 52.1172 93.4316 52.1172C93.0371 52.1172 92.6484 52.0625 92.2656 51.9531C91.8867 51.8438 91.541 51.6797 91.2285 51.4609C90.9199 51.2422 90.6719 50.9727 90.4844 50.6523C90.3008 50.3281 90.209 49.9531 90.209 49.5273H91.334C91.334 49.8203 91.3906 50.0723 91.5039 50.2832C91.6172 50.4902 91.7715 50.6621 91.9668 50.7988C92.166 50.9355 92.3906 51.0371 92.6406 51.1035C92.8945 51.166 93.1582 51.1973 93.4316 51.1973C93.8262 51.1973 94.1602 51.1426 94.4336 51.0332C94.707 50.9238 94.9141 50.7676 95.0547 50.5645C95.1992 50.3613 95.2715 50.1211 95.2715 49.8438ZM103.27 51.0801V52H98.752V51.0801H103.27ZM98.9805 43.4688V52H97.8496V43.4688H98.9805ZM102.672 47.1367V48.0566H98.752V47.1367H102.672ZM103.211 43.4688V44.3945H98.752V43.4688H103.211Z" fill="white"/>
</svg>
