<svg width="356" height="382" viewBox="0 0 356 382" fill="none" xmlns="http://www.w3.org/2000/svg">
<path d="M21.4219 332.211C21.4219 331.508 21.3125 330.883 21.0938 330.336C20.8906 329.789 20.5234 329.289 19.9922 328.836C19.4609 328.383 18.7109 327.945 17.7422 327.523C16.7891 327.086 15.5703 326.641 14.0859 326.188C12.4609 325.688 10.9609 325.133 9.58594 324.523C8.22656 323.898 7.03906 323.18 6.02344 322.367C5.00781 321.539 4.21875 320.594 3.65625 319.531C3.09375 318.453 2.8125 317.211 2.8125 315.805C2.8125 314.414 3.10156 313.148 3.67969 312.008C4.27344 310.867 5.10938 309.883 6.1875 309.055C7.28125 308.211 8.57031 307.562 10.0547 307.109C11.5391 306.641 13.1797 306.406 14.9766 306.406C17.5078 306.406 19.6875 306.875 21.5156 307.812C23.3594 308.75 24.7734 310.008 25.7578 311.586C26.7578 313.164 27.2578 314.906 27.2578 316.812H21.4219C21.4219 315.688 21.1797 314.695 20.6953 313.836C20.2266 312.961 19.5078 312.273 18.5391 311.773C17.5859 311.273 16.375 311.023 14.9062 311.023C13.5156 311.023 12.3594 311.234 11.4375 311.656C10.5156 312.078 9.82812 312.648 9.375 313.367C8.92188 314.086 8.69531 314.898 8.69531 315.805C8.69531 316.445 8.84375 317.031 9.14062 317.562C9.4375 318.078 9.89062 318.562 10.5 319.016C11.1094 319.453 11.875 319.867 12.7969 320.258C13.7188 320.648 14.8047 321.023 16.0547 321.383C17.9453 321.945 19.5938 322.57 21 323.258C22.4062 323.93 23.5781 324.695 24.5156 325.555C25.4531 326.414 26.1562 327.391 26.625 328.484C27.0938 329.562 27.3281 330.789 27.3281 332.164C27.3281 333.602 27.0391 334.898 26.4609 336.055C25.8828 337.195 25.0547 338.172 23.9766 338.984C22.9141 339.781 21.6328 340.398 20.1328 340.836C18.6484 341.258 16.9922 341.469 15.1641 341.469C13.5234 341.469 11.9062 341.25 10.3125 340.812C8.73438 340.375 7.29688 339.711 6 338.82C4.70312 337.914 3.67188 336.789 2.90625 335.445C2.14062 334.086 1.75781 332.5 1.75781 330.688H7.64062C7.64062 331.797 7.82812 332.742 8.20312 333.523C8.59375 334.305 9.13281 334.945 9.82031 335.445C10.5078 335.93 11.3047 336.289 12.2109 336.523C13.1328 336.758 14.1172 336.875 15.1641 336.875C16.5391 336.875 17.6875 336.68 18.6094 336.289C19.5469 335.898 20.25 335.352 20.7188 334.648C21.1875 333.945 21.4219 333.133 21.4219 332.211ZM34.9219 306.875H40.1719L50.0391 333.195L59.8828 306.875H65.1328L52.1016 341H47.9297L34.9219 306.875ZM32.5312 306.875H37.5234L38.3906 329.656V341H32.5312V306.875ZM62.5312 306.875H67.5469V341H61.6641V329.656L62.5312 306.875ZM88.2422 311.422L78.0469 341H71.8828L84.7266 306.875H88.6641L88.2422 311.422ZM96.7734 341L86.5547 311.422L86.1094 306.875H90.0703L102.961 341H96.7734ZM96.2812 328.344V333.008H77.7188V328.344H96.2812ZM106.781 306.875H118.852C121.445 306.875 123.656 307.266 125.484 308.047C127.312 308.828 128.711 309.984 129.68 311.516C130.664 313.031 131.156 314.906 131.156 317.141C131.156 318.844 130.844 320.344 130.219 321.641C129.594 322.938 128.711 324.031 127.57 324.922C126.43 325.797 125.07 326.477 123.492 326.961L121.711 327.828H110.859L110.812 323.164H118.945C120.352 323.164 121.523 322.914 122.461 322.414C123.398 321.914 124.102 321.234 124.57 320.375C125.055 319.5 125.297 318.516 125.297 317.422C125.297 316.234 125.062 315.203 124.594 314.328C124.141 313.438 123.438 312.758 122.484 312.289C121.531 311.805 120.32 311.562 118.852 311.562H112.664V341H106.781V306.875ZM126.258 341L118.242 325.672L124.406 325.648L132.539 340.695V341H126.258ZM149.461 306.875V341H143.625V306.875H149.461ZM160.172 306.875V311.562H133.008V306.875H160.172ZM193.453 332.211C193.453 331.508 193.344 330.883 193.125 330.336C192.922 329.789 192.555 329.289 192.023 328.836C191.492 328.383 190.742 327.945 189.773 327.523C188.82 327.086 187.602 326.641 186.117 326.188C184.492 325.688 182.992 325.133 181.617 324.523C180.258 323.898 179.07 323.18 178.055 322.367C177.039 321.539 176.25 320.594 175.688 319.531C175.125 318.453 174.844 317.211 174.844 315.805C174.844 314.414 175.133 313.148 175.711 312.008C176.305 310.867 177.141 309.883 178.219 309.055C179.312 308.211 180.602 307.562 182.086 307.109C183.57 306.641 185.211 306.406 187.008 306.406C189.539 306.406 191.719 306.875 193.547 307.812C195.391 308.75 196.805 310.008 197.789 311.586C198.789 313.164 199.289 314.906 199.289 316.812H193.453C193.453 315.688 193.211 314.695 192.727 313.836C192.258 312.961 191.539 312.273 190.57 311.773C189.617 311.273 188.406 311.023 186.938 311.023C185.547 311.023 184.391 311.234 183.469 311.656C182.547 312.078 181.859 312.648 181.406 313.367C180.953 314.086 180.727 314.898 180.727 315.805C180.727 316.445 180.875 317.031 181.172 317.562C181.469 318.078 181.922 318.562 182.531 319.016C183.141 319.453 183.906 319.867 184.828 320.258C185.75 320.648 186.836 321.023 188.086 321.383C189.977 321.945 191.625 322.57 193.031 323.258C194.438 323.93 195.609 324.695 196.547 325.555C197.484 326.414 198.188 327.391 198.656 328.484C199.125 329.562 199.359 330.789 199.359 332.164C199.359 333.602 199.07 334.898 198.492 336.055C197.914 337.195 197.086 338.172 196.008 338.984C194.945 339.781 193.664 340.398 192.164 340.836C190.68 341.258 189.023 341.469 187.195 341.469C185.555 341.469 183.938 341.25 182.344 340.812C180.766 340.375 179.328 339.711 178.031 338.82C176.734 337.914 175.703 336.789 174.938 335.445C174.172 334.086 173.789 332.5 173.789 330.688H179.672C179.672 331.797 179.859 332.742 180.234 333.523C180.625 334.305 181.164 334.945 181.852 335.445C182.539 335.93 183.336 336.289 184.242 336.523C185.164 336.758 186.148 336.875 187.195 336.875C188.57 336.875 189.719 336.68 190.641 336.289C191.578 335.898 192.281 335.352 192.75 334.648C193.219 333.945 193.453 333.133 193.453 332.211ZM226.898 336.336V341H208.781V336.336H226.898ZM210.445 306.875V341H204.562V306.875H210.445ZM224.531 321.125V325.719H208.781V321.125H224.531ZM226.781 306.875V311.562H208.781V306.875H226.781ZM258.773 306.875V341H252.891L237.586 316.555V341H231.703V306.875H237.586L252.938 331.367V306.875H258.773ZM283.734 332.211C283.734 331.508 283.625 330.883 283.406 330.336C283.203 329.789 282.836 329.289 282.305 328.836C281.773 328.383 281.023 327.945 280.055 327.523C279.102 327.086 277.883 326.641 276.398 326.188C274.773 325.688 273.273 325.133 271.898 324.523C270.539 323.898 269.352 323.18 268.336 322.367C267.32 321.539 266.531 320.594 265.969 319.531C265.406 318.453 265.125 317.211 265.125 315.805C265.125 314.414 265.414 313.148 265.992 312.008C266.586 310.867 267.422 309.883 268.5 309.055C269.594 308.211 270.883 307.562 272.367 307.109C273.852 306.641 275.492 306.406 277.289 306.406C279.82 306.406 282 306.875 283.828 307.812C285.672 308.75 287.086 310.008 288.07 311.586C289.07 313.164 289.57 314.906 289.57 316.812H283.734C283.734 315.688 283.492 314.695 283.008 313.836C282.539 312.961 281.82 312.273 280.852 311.773C279.898 311.273 278.688 311.023 277.219 311.023C275.828 311.023 274.672 311.234 273.75 311.656C272.828 312.078 272.141 312.648 271.688 313.367C271.234 314.086 271.008 314.898 271.008 315.805C271.008 316.445 271.156 317.031 271.453 317.562C271.75 318.078 272.203 318.562 272.812 319.016C273.422 319.453 274.188 319.867 275.109 320.258C276.031 320.648 277.117 321.023 278.367 321.383C280.258 321.945 281.906 322.57 283.312 323.258C284.719 323.93 285.891 324.695 286.828 325.555C287.766 326.414 288.469 327.391 288.938 328.484C289.406 329.562 289.641 330.789 289.641 332.164C289.641 333.602 289.352 334.898 288.773 336.055C288.195 337.195 287.367 338.172 286.289 338.984C285.227 339.781 283.945 340.398 282.445 340.836C280.961 341.258 279.305 341.469 277.477 341.469C275.836 341.469 274.219 341.25 272.625 340.812C271.047 340.375 269.609 339.711 268.312 338.82C267.016 337.914 265.984 336.789 265.219 335.445C264.453 334.086 264.07 332.5 264.07 330.688H269.953C269.953 331.797 270.141 332.742 270.516 333.523C270.906 334.305 271.445 334.945 272.133 335.445C272.82 335.93 273.617 336.289 274.523 336.523C275.445 336.758 276.43 336.875 277.477 336.875C278.852 336.875 280 336.68 280.922 336.289C281.859 335.898 282.562 335.352 283.031 334.648C283.5 333.945 283.734 333.133 283.734 332.211ZM322.055 323V324.875C322.055 327.453 321.719 329.766 321.047 331.812C320.375 333.859 319.414 335.602 318.164 337.039C316.93 338.477 315.445 339.578 313.711 340.344C311.977 341.094 310.055 341.469 307.945 341.469C305.852 341.469 303.938 341.094 302.203 340.344C300.484 339.578 298.992 338.477 297.727 337.039C296.461 335.602 295.477 333.859 294.773 331.812C294.086 329.766 293.742 327.453 293.742 324.875V323C293.742 320.422 294.086 318.117 294.773 316.086C295.461 314.039 296.43 312.297 297.68 310.859C298.945 309.406 300.438 308.305 302.156 307.555C303.891 306.789 305.805 306.406 307.898 306.406C310.008 306.406 311.93 306.789 313.664 307.555C315.398 308.305 316.891 309.406 318.141 310.859C319.391 312.297 320.352 314.039 321.023 316.086C321.711 318.117 322.055 320.422 322.055 323ZM316.172 324.875V322.953C316.172 321.047 315.984 319.367 315.609 317.914C315.25 316.445 314.711 315.219 313.992 314.234C313.289 313.234 312.422 312.484 311.391 311.984C310.359 311.469 309.195 311.211 307.898 311.211C306.602 311.211 305.445 311.469 304.43 311.984C303.414 312.484 302.547 313.234 301.828 314.234C301.125 315.219 300.586 316.445 300.211 317.914C299.836 319.367 299.648 321.047 299.648 322.953V324.875C299.648 326.781 299.836 328.469 300.211 329.938C300.586 331.406 301.133 332.648 301.852 333.664C302.586 334.664 303.461 335.422 304.477 335.938C305.492 336.438 306.648 336.688 307.945 336.688C309.258 336.688 310.422 336.438 311.438 335.938C312.453 335.422 313.312 334.664 314.016 333.664C314.719 332.648 315.25 331.406 315.609 329.938C315.984 328.469 316.172 326.781 316.172 324.875ZM327.938 306.875H340.008C342.602 306.875 344.812 307.266 346.641 308.047C348.469 308.828 349.867 309.984 350.836 311.516C351.82 313.031 352.312 314.906 352.312 317.141C352.312 318.844 352 320.344 351.375 321.641C350.75 322.938 349.867 324.031 348.727 324.922C347.586 325.797 346.227 326.477 344.648 326.961L342.867 327.828H332.016L331.969 323.164H340.102C341.508 323.164 342.68 322.914 343.617 322.414C344.555 321.914 345.258 321.234 345.727 320.375C346.211 319.5 346.453 318.516 346.453 317.422C346.453 316.234 346.219 315.203 345.75 314.328C345.297 313.438 344.594 312.758 343.641 312.289C342.688 311.805 341.477 311.562 340.008 311.562H333.82V341H327.938V306.875ZM347.414 341L339.398 325.672L345.562 325.648L353.695 340.695V341H347.414Z" fill="white"/>
<path d="M3.93066 356.117H7.12646L15.2783 376.403L23.4131 356.117H26.626L16.5088 381H14.0137L3.93066 356.117ZM2.88818 356.117H5.70801L6.16943 371.293V381H2.88818V356.117ZM24.8315 356.117H27.6514V381H24.3701V371.293L24.8315 356.117ZM52.6025 367.772V369.345C52.6025 371.213 52.369 372.888 51.9019 374.369C51.4347 375.85 50.7625 377.109 49.8853 378.146C49.008 379.183 47.9541 379.975 46.7236 380.521C45.5046 381.068 44.1374 381.342 42.6221 381.342C41.1523 381.342 39.8022 381.068 38.5718 380.521C37.3527 379.975 36.2931 379.183 35.3931 378.146C34.5044 377.109 33.8151 375.85 33.3252 374.369C32.8353 372.888 32.5903 371.213 32.5903 369.345V367.772C32.5903 365.904 32.8296 364.235 33.3081 362.765C33.798 361.284 34.4873 360.025 35.376 358.988C36.2646 357.94 37.3185 357.143 38.5376 356.596C39.7681 356.049 41.1182 355.775 42.5879 355.775C44.1032 355.775 45.4704 356.049 46.6895 356.596C47.9199 357.143 48.9738 357.94 49.8511 358.988C50.7397 360.025 51.4176 361.284 51.8848 362.765C52.3633 364.235 52.6025 365.904 52.6025 367.772ZM49.3384 369.345V367.738C49.3384 366.257 49.1846 364.947 48.877 363.808C48.5807 362.668 48.1421 361.711 47.561 360.937C46.98 360.162 46.2679 359.575 45.4248 359.176C44.5931 358.778 43.6475 358.578 42.5879 358.578C41.5625 358.578 40.634 358.778 39.8022 359.176C38.9819 359.575 38.2756 360.162 37.6831 360.937C37.1021 361.711 36.652 362.668 36.333 363.808C36.014 364.947 35.8545 366.257 35.8545 367.738V369.345C35.8545 370.837 36.014 372.159 36.333 373.31C36.652 374.449 37.1077 375.412 37.7002 376.198C38.304 376.972 39.0161 377.559 39.8364 377.958C40.6681 378.357 41.5967 378.556 42.6221 378.556C43.693 378.556 44.6444 378.357 45.4761 377.958C46.3078 377.559 47.0085 376.972 47.5781 376.198C48.1592 375.412 48.5978 374.449 48.894 373.31C49.1903 372.159 49.3384 370.837 49.3384 369.345ZM76.6821 356.117V381H73.3667L60.8398 361.808V381H57.5415V356.117H60.8398L73.418 375.36V356.117H76.6821ZM86.0645 356.117V381H82.7661V356.117H86.0645ZM100.745 356.117V381H97.4976V356.117H100.745ZM108.743 356.117V358.817H89.5166V356.117H108.743ZM131.113 367.772V369.345C131.113 371.213 130.88 372.888 130.413 374.369C129.945 375.85 129.273 377.109 128.396 378.146C127.519 379.183 126.465 379.975 125.234 380.521C124.015 381.068 122.648 381.342 121.133 381.342C119.663 381.342 118.313 381.068 117.083 380.521C115.863 379.975 114.804 379.183 113.904 378.146C113.015 377.109 112.326 375.85 111.836 374.369C111.346 372.888 111.101 371.213 111.101 369.345V367.772C111.101 365.904 111.34 364.235 111.819 362.765C112.309 361.284 112.998 360.025 113.887 358.988C114.775 357.94 115.829 357.143 117.048 356.596C118.279 356.049 119.629 355.775 121.099 355.775C122.614 355.775 123.981 356.049 125.2 356.596C126.431 357.143 127.485 357.94 128.362 358.988C129.25 360.025 129.928 361.284 130.396 362.765C130.874 364.235 131.113 365.904 131.113 367.772ZM127.849 369.345V367.738C127.849 366.257 127.695 364.947 127.388 363.808C127.091 362.668 126.653 361.711 126.072 360.937C125.491 360.162 124.779 359.575 123.936 359.176C123.104 358.778 122.158 358.578 121.099 358.578C120.073 358.578 119.145 358.778 118.313 359.176C117.493 359.575 116.786 360.162 116.194 360.937C115.613 361.711 115.163 362.668 114.844 363.808C114.525 364.947 114.365 366.257 114.365 367.738V369.345C114.365 370.837 114.525 372.159 114.844 373.31C115.163 374.449 115.618 375.412 116.211 376.198C116.815 376.972 117.527 377.559 118.347 377.958C119.179 378.357 120.107 378.556 121.133 378.556C122.204 378.556 123.155 378.357 123.987 377.958C124.819 377.559 125.519 376.972 126.089 376.198C126.67 375.412 127.109 374.449 127.405 373.31C127.701 372.159 127.849 370.837 127.849 369.345ZM136.052 356.117H144.29C146.158 356.117 147.736 356.402 149.023 356.972C150.322 357.541 151.308 358.384 151.98 359.501C152.664 360.606 153.005 361.968 153.005 363.585C153.005 364.725 152.772 365.767 152.305 366.713C151.849 367.647 151.188 368.445 150.322 369.105C149.468 369.755 148.442 370.239 147.246 370.558L146.323 370.917H138.582L138.547 368.234H144.392C145.577 368.234 146.562 368.029 147.349 367.619C148.135 367.197 148.727 366.633 149.126 365.927C149.525 365.22 149.724 364.44 149.724 363.585C149.724 362.628 149.536 361.791 149.16 361.073C148.784 360.355 148.192 359.803 147.383 359.416C146.585 359.017 145.554 358.817 144.29 358.817H139.351V381H136.052V356.117ZM150.596 381L144.546 369.721L147.981 369.704L154.116 380.795V381H150.596ZM161.157 356.117V381H157.859V356.117H161.157ZM186.296 356.117V381H182.981L170.454 361.808V381H167.156V356.117H170.454L183.032 375.36V356.117H186.296ZM210.53 368.61V377.719C210.222 378.174 209.732 378.687 209.06 379.257C208.388 379.815 207.459 380.305 206.274 380.727C205.101 381.137 203.586 381.342 201.729 381.342C200.213 381.342 198.818 381.08 197.542 380.556C196.277 380.02 195.177 379.245 194.243 378.231C193.32 377.206 192.603 375.964 192.09 374.506C191.589 373.036 191.338 371.373 191.338 369.516V367.584C191.338 365.727 191.554 364.07 191.987 362.611C192.432 361.153 193.081 359.917 193.936 358.903C194.79 357.877 195.838 357.103 197.08 356.579C198.322 356.043 199.746 355.775 201.353 355.775C203.255 355.775 204.845 356.106 206.121 356.767C207.408 357.416 208.411 358.316 209.128 359.467C209.858 360.618 210.325 361.928 210.53 363.397H207.231C207.083 362.497 206.787 361.677 206.343 360.937C205.91 360.196 205.289 359.604 204.48 359.159C203.671 358.703 202.629 358.476 201.353 358.476C200.202 358.476 199.205 358.686 198.362 359.108C197.519 359.529 196.824 360.133 196.277 360.919C195.73 361.706 195.32 362.657 195.046 363.773C194.784 364.89 194.653 366.149 194.653 367.55V369.516C194.653 370.951 194.819 372.233 195.149 373.361C195.491 374.489 195.975 375.451 196.602 376.249C197.228 377.035 197.974 377.633 198.84 378.043C199.718 378.454 200.686 378.659 201.746 378.659C202.919 378.659 203.87 378.562 204.6 378.368C205.329 378.163 205.898 377.924 206.309 377.65C206.719 377.366 207.032 377.098 207.249 376.847V371.276H201.489V368.61H210.53ZM237.942 374.711C237.942 374.13 237.851 373.617 237.668 373.173C237.498 372.717 237.19 372.307 236.746 371.942C236.313 371.578 235.709 371.23 234.934 370.9C234.171 370.569 233.202 370.233 232.029 369.892C230.798 369.527 229.688 369.123 228.696 368.678C227.705 368.222 226.856 367.704 226.15 367.123C225.444 366.542 224.902 365.875 224.526 365.124C224.15 364.372 223.962 363.511 223.962 362.543C223.962 361.575 224.162 360.68 224.561 359.86C224.959 359.04 225.529 358.327 226.27 357.724C227.021 357.108 227.916 356.63 228.953 356.288C229.989 355.946 231.146 355.775 232.422 355.775C234.29 355.775 235.874 356.134 237.173 356.852C238.483 357.558 239.48 358.487 240.164 359.638C240.847 360.777 241.189 361.996 241.189 363.295H237.908C237.908 362.361 237.708 361.535 237.31 360.817C236.911 360.088 236.307 359.518 235.498 359.108C234.689 358.686 233.664 358.476 232.422 358.476C231.248 358.476 230.28 358.652 229.517 359.005C228.753 359.359 228.184 359.837 227.808 360.441C227.443 361.045 227.261 361.734 227.261 362.509C227.261 363.033 227.369 363.511 227.585 363.944C227.813 364.366 228.161 364.759 228.628 365.124C229.106 365.488 229.71 365.824 230.439 366.132C231.18 366.439 232.063 366.736 233.088 367.021C234.501 367.419 235.72 367.864 236.746 368.354C237.771 368.843 238.614 369.396 239.275 370.011C239.947 370.615 240.443 371.304 240.762 372.079C241.092 372.842 241.257 373.708 241.257 374.677C241.257 375.691 241.052 376.608 240.642 377.428C240.232 378.249 239.645 378.949 238.882 379.53C238.118 380.111 237.201 380.561 236.13 380.88C235.071 381.188 233.886 381.342 232.576 381.342C231.425 381.342 230.291 381.182 229.175 380.863C228.07 380.544 227.061 380.066 226.15 379.428C225.25 378.79 224.526 378.004 223.979 377.069C223.444 376.124 223.176 375.03 223.176 373.788H226.458C226.458 374.643 226.623 375.377 226.953 375.993C227.284 376.597 227.734 377.098 228.303 377.497C228.884 377.895 229.539 378.192 230.269 378.385C231.009 378.568 231.778 378.659 232.576 378.659C233.726 378.659 234.701 378.499 235.498 378.18C236.296 377.861 236.899 377.405 237.31 376.813C237.731 376.221 237.942 375.52 237.942 374.711ZM246.606 356.117L253.066 368.61L259.543 356.117H263.286L254.707 371.703V381H251.409V371.703L242.83 356.117H246.606ZM279.47 374.711C279.47 374.13 279.379 373.617 279.197 373.173C279.026 372.717 278.718 372.307 278.274 371.942C277.841 371.578 277.237 371.23 276.462 370.9C275.699 370.569 274.731 370.233 273.557 369.892C272.327 369.527 271.216 369.123 270.225 368.678C269.233 368.222 268.385 367.704 267.678 367.123C266.972 366.542 266.431 365.875 266.055 365.124C265.679 364.372 265.491 363.511 265.491 362.543C265.491 361.575 265.69 360.68 266.089 359.86C266.488 359.04 267.057 358.327 267.798 357.724C268.55 357.108 269.444 356.63 270.481 356.288C271.518 355.946 272.674 355.775 273.95 355.775C275.819 355.775 277.402 356.134 278.701 356.852C280.011 357.558 281.008 358.487 281.692 359.638C282.375 360.777 282.717 361.996 282.717 363.295H279.436C279.436 362.361 279.237 361.535 278.838 360.817C278.439 360.088 277.835 359.518 277.026 359.108C276.217 358.686 275.192 358.476 273.95 358.476C272.777 358.476 271.808 358.652 271.045 359.005C270.282 359.359 269.712 359.837 269.336 360.441C268.971 361.045 268.789 361.734 268.789 362.509C268.789 363.033 268.897 363.511 269.114 363.944C269.342 364.366 269.689 364.759 270.156 365.124C270.635 365.488 271.239 365.824 271.968 366.132C272.708 366.439 273.591 366.736 274.617 367.021C276.029 367.419 277.249 367.864 278.274 368.354C279.299 368.843 280.142 369.396 280.803 370.011C281.475 370.615 281.971 371.304 282.29 372.079C282.62 372.842 282.786 373.708 282.786 374.677C282.786 375.691 282.581 376.608 282.17 377.428C281.76 378.249 281.174 378.949 280.41 379.53C279.647 380.111 278.73 380.561 277.659 380.88C276.599 381.188 275.414 381.342 274.104 381.342C272.953 381.342 271.82 381.182 270.703 380.863C269.598 380.544 268.59 380.066 267.678 379.428C266.778 378.79 266.055 378.004 265.508 377.069C264.972 376.124 264.705 375.03 264.705 373.788H267.986C267.986 374.643 268.151 375.377 268.481 375.993C268.812 376.597 269.262 377.098 269.832 377.497C270.413 377.895 271.068 378.192 271.797 378.385C272.537 378.568 273.306 378.659 274.104 378.659C275.255 378.659 276.229 378.499 277.026 378.18C277.824 377.861 278.428 377.405 278.838 376.813C279.259 376.221 279.47 375.52 279.47 374.711ZM296.184 356.117V381H292.937V356.117H296.184ZM304.182 356.117V358.817H284.956V356.117H304.182ZM323.682 378.317V381H310.505V378.317H323.682ZM311.172 356.117V381H307.874V356.117H311.172ZM321.938 366.815V369.499H310.505V366.815H321.938ZM323.511 356.117V358.817H310.505V356.117H323.511ZM328.809 356.117H332.004L340.156 376.403L348.291 356.117H351.504L341.387 381H338.892L328.809 356.117ZM327.766 356.117H330.586L331.047 371.293V381H327.766V356.117ZM349.709 356.117H352.529V381H349.248V371.293L349.709 356.117Z" fill="white"/>
<rect x="46" y="178.383" width="50.313" height="86.9043" rx="5" fill="#E54C41"/>
<rect x="116.896" y="212.687" width="50.313" height="52.6" rx="5" fill="#F9BE15"/>
<rect x="116.896" y="125.783" width="50.313" height="68.6087" rx="5" fill="#F9BE15"/>
<rect x="187.791" y="194.391" width="50.313" height="68.6087" rx="5" fill="#3FA95B"/>
<rect x="258.687" y="212.687" width="50.313" height="50.313" rx="5" fill="#4C88EF"/>
<rect x="258.687" y="109.774" width="50.313" height="84.6174" rx="5" fill="#4C88EF"/>
<rect x="258.687" width="50.313" height="91.4783" rx="5" fill="#4C88EF"/>
<rect x="187.791" y="125.783" width="50.313" height="52.6" rx="5" fill="#3FA95B"/>
<rect x="187.791" y="57.1738" width="50.313" height="52.6" rx="5" fill="#3FA95B"/>
</svg>
